<?xml version="1.0" encoding="UTF-8" standalone="no"?>
<!-- Created with Inkscape (http://www.inkscape.org/) -->

<svg
   xmlns:dc="http://purl.org/dc/elements/1.1/"
   xmlns:cc="http://creativecommons.org/ns#"
   xmlns:rdf="http://www.w3.org/1999/02/22-rdf-syntax-ns#"
   xmlns:svg="http://www.w3.org/2000/svg"
   xmlns="http://www.w3.org/2000/svg"
   xmlns:sodipodi="http://sodipodi.sourceforge.net/DTD/sodipodi-0.dtd"
   xmlns:inkscape="http://www.inkscape.org/namespaces/inkscape"
   width="300"
   height="300"
   id="svg2"
   version="1.1"
   inkscape:version="0.48.2 r9819"
   sodipodi:docname="default-icon.svg"
   inkscape:export-filename="default-icon.png"
   inkscape:export-xdpi="19.200001"
   inkscape:export-ydpi="19.200001">
  <defs
     id="defs4" />
  <sodipodi:namedview
     id="base"
     pagecolor="#ffffff"
     bordercolor="#666666"
     borderopacity="1.0"
     inkscape:pageopacity="0.0"
     inkscape:pageshadow="2"
     inkscape:zoom="1"
     inkscape:cx="186.07143"
     inkscape:cy="165.71429"
     inkscape:document-units="px"
     inkscape:current-layer="layer1"
     showgrid="false"
     inkscape:window-width="1392"
     inkscape:window-height="856"
     inkscape:window-x="48"
     inkscape:window-y="0"
     inkscape:window-maximized="1" />
  <metadata
     id="metadata7">
    <rdf:RDF>
      <cc:Work
         rdf:about="">
        <dc:format>image/svg+xml</dc:format>
        <dc:type
           rdf:resource="http://purl.org/dc/dcmitype/StillImage" />
        <dc:title></dc:title>
      </cc:Work>
    </rdf:RDF>
  </metadata>
  <g
     inkscape:label="Vrstva 1"
     inkscape:groupmode="layer"
     id="layer1"
     transform="translate(0,-752.36218)">
    <path
       style="font-size:350px;font-style:normal;font-variant:normal;font-weight:bold;font-stretch:normal;line-height:125%;letter-spacing:0px;word-spacing:0px;fill:#000000;fill-opacity:1;stroke:none;font-family:Cambria;-inkscape-font-specification:Cambria"
       d="m 50,787.36219 0,59.13317 23.275326,0 c 1.246209,-5.05534 2.828454,-10.37534 4.754506,-15.99275 1.925978,-5.7294 4.199637,-10.28032 6.805469,-13.65087 2.719026,-3.37013 5.883516,-5.85328 9.509012,-7.42631 3.625377,-1.57262 8.833057,-2.3725 15.630827,-2.37272 l 13.76631,0 0,168.03189 c -9e-5,5.3926 -0.15739,9.94352 -0.4972,13.65087 -0.33997,3.59505 -1.18871,6.577 -2.54817,8.93623 -1.35962,2.3592 -3.47596,4.1984 -6.30826,5.5466 -2.71915,1.2359 -6.45983,2.2333 -11.21815,3.0198 l 0,11.1241 93.81604,0 0,-11.1241 c -3.96549,-0.5618 -7.12997,-1.289 -9.50902,-2.1878 -2.26604,-1.0112 -4.07876,-2.0813 -5.43816,-3.2047 -1.24639,-1.23582 -2.3256,-2.80475 -3.23182,-4.71463 -0.9065,-1.90986 -1.52476,-4.36217 -1.86451,-7.3955 -0.34003,-3.14563 -0.52841,-7.69655 -0.52828,-13.65087 l 0,-168.03189 12.24363,0 c 4.64494,2.2e-4 8.38561,0.3013 11.21815,0.8628 2.9455,0.4496 5.3765,1.17696 7.30267,2.18784 1.92585,1.01131 3.73856,2.35174 5.43816,4.0367 1.69925,1.68537 3.28149,3.82571 4.75451,6.40944 1.58595,2.47178 3.01087,5.49546 4.2573,9.09031 1.24606,3.59522 2.94354,9.2163 5.09633,16.85555 l 23.27533,0 0,-59.13317 -200,0 z m 6.960845,6.87165 186.078305,0 0,45.35906 -11.12492,0 c -1.34907,-4.62076 -2.7507,-9.46952 -3.69795,-12.20257 -1.342,-3.87049 -2.91603,-7.25631 -4.78558,-10.23044 -0.061,-0.10704 -0.1249,-0.20201 -0.18645,-0.30815 -1.66698,-2.87401 -3.54309,-5.42339 -5.71784,-7.58038 -2.11431,-2.09612 -4.456,-3.91948 -7.08514,-5.30011 -2.75817,-1.44752 -5.8341,-2.29722 -9.19826,-2.83494 l 0,-0.0308 c -0.0955,-0.0188 -0.2145,-0.0125 -0.31075,-0.0308 -3.49909,-0.66485 -7.48934,-0.92421 -12.27471,-0.92444 l -12.24363,0 a 6.9615413,6.9031559 0 0 0 -6.96084,6.90248 l 0,168.00109 c -1.3e-4,6.09874 0.17254,10.81193 0.55935,14.3904 a 6.9615413,6.9031559 0 0 0 0,0.0308 c 0.39601,3.5357 1.10883,6.68189 2.48602,9.58338 1.18734,2.50228 2.72121,4.76318 4.6302,6.65588 a 6.9615413,6.9031559 0 0 0 0.46613,0.4314 c 2.02716,1.6753 4.34764,2.997 7.023,4.1907 a 6.9615413,6.9031559 0 0 0 0.31075,0.1233 l -70.38534,0 c 0.90814,-0.3232 1.89461,-0.5734 2.73462,-0.9552 a 6.9615413,6.9031559 0 0 0 0.1243,-0.061 c 3.87661,-1.8454 7.2052,-4.7075 9.32256,-8.3816 1.99378,-3.46003 3.04224,-7.40449 3.44935,-11.70952 a 6.9615413,6.9031559 0 0 0 0,-0.0308 c 0.36877,-4.02323 0.52819,-8.74153 0.52828,-14.26716 l 0,-168.00108 a 6.9615413,6.9031559 0 0 0 -6.96085,-6.90247 l -13.76631,0 c -7.34833,2.4e-4 -13.353795,0.75729 -18.427595,2.9582 -4.69676,2.03784 -8.814565,5.26379 -12.150404,9.39845 a 6.9615413,6.9031559 0 0 0 -0.09323,0.12326 c -3.249988,4.20373 -5.768668,9.40565 -7.862026,15.62299 -0.0032,0.01 0.0032,0.0209 0,0.0308 -1.351987,3.94489 -2.35424,7.60179 -3.387197,11.30895 l -11.093847,0 0,-45.35906 z"
       id="path2994"
       inkscape:connector-curvature="0" />
    <path
       inkscape:connector-curvature="0"
       id="path3753"
       d="m 55,792.36217 0,59.13317 23.275326,0 C 79.521535,846.44 81.10378,841.12 83.029832,835.50259 c 1.925978,-5.7294 4.199637,-10.28032 6.805469,-13.65087 2.719026,-3.37013 5.883516,-5.85328 9.509012,-7.42631 3.625377,-1.57262 8.833057,-2.3725 15.630827,-2.37272 l 13.76631,0 0,168.03189 c -9e-5,5.3926 -0.15739,9.94352 -0.4972,13.65087 -0.33997,3.59505 -1.18871,6.57705 -2.54817,8.93625 -1.35962,2.3592 -3.47596,4.1984 -6.30826,5.5466 -2.71915,1.2359 -6.45983,2.2333 -11.21815,3.0198 l 0,11.1241 93.81604,0 0,-11.1241 c -3.96549,-0.5618 -7.12997,-1.289 -9.50902,-2.1878 -2.26604,-1.0112 -4.07876,-2.0813 -5.43816,-3.2047 -1.24639,-1.2358 -2.3256,-2.8048 -3.23182,-4.7146 -0.9065,-1.90991 -1.52476,-4.36222 -1.86451,-7.39555 -0.34003,-3.14563 -0.52841,-7.69655 -0.52828,-13.65087 l 0,-168.03189 12.24363,0 c 4.64494,2.2e-4 8.38561,0.3013 11.21815,0.8628 2.9455,0.4496 5.3765,1.17696 7.30267,2.18784 1.92585,1.01131 3.73856,2.35174 5.43816,4.0367 1.69925,1.68537 3.28149,3.82571 4.75451,6.40944 1.58595,2.47178 3.01087,5.49546 4.2573,9.09031 1.24606,3.59522 2.94354,9.2163 5.09633,16.85555 l 23.27533,0 0,-59.13317 -200,0 z m 6.960845,6.87165 186.078305,0 0,45.35906 -11.12492,0 c -1.34907,-4.62076 -2.7507,-9.46952 -3.69795,-12.20257 -1.342,-3.87049 -2.91603,-7.25631 -4.78558,-10.23044 -0.061,-0.10704 -0.1249,-0.20201 -0.18645,-0.30815 -1.66698,-2.87401 -3.54309,-5.42339 -5.71784,-7.58038 -2.11431,-2.09612 -4.456,-3.91948 -7.08514,-5.30011 -2.75817,-1.44752 -5.8341,-2.29722 -9.19826,-2.83494 l 0,-0.0308 c -0.0955,-0.0188 -0.2145,-0.0125 -0.31075,-0.0308 -3.49909,-0.66485 -7.48934,-0.92421 -12.27471,-0.92444 l -12.24363,0 a 6.9615413,6.9031559 0 0 0 -6.96084,6.90248 l 0,168.00109 c -1.3e-4,6.09874 0.17254,10.81193 0.55935,14.3904 a 6.9615413,6.9031559 0 0 0 0,0.0308 c 0.39601,3.5357 1.10883,6.68188 2.48602,9.58338 1.18734,2.5023 2.72121,4.7632 4.6302,6.6559 a 6.9615413,6.9031559 0 0 0 0.46613,0.4314 c 2.02716,1.6753 4.34764,2.997 7.023,4.1907 a 6.9615413,6.9031559 0 0 0 0.31075,0.1233 l -70.38534,0 c 0.90814,-0.3232 1.89461,-0.5734 2.73462,-0.9552 a 6.9615413,6.9031559 0 0 0 0.1243,-0.061 c 3.87661,-1.8454 7.2052,-4.7075 9.32256,-8.3816 1.99378,-3.46 3.04224,-7.40451 3.44935,-11.70954 a 6.9615413,6.9031559 0 0 0 0,-0.0308 c 0.36877,-4.02323 0.52819,-8.74153 0.52828,-14.26716 l 0,-168.00108 a 6.9615413,6.9031559 0 0 0 -6.96085,-6.90247 l -13.76631,0 c -7.34833,2.4e-4 -13.35379,0.75729 -18.427595,2.9582 -4.69676,2.03784 -8.814565,5.26379 -12.150404,9.39845 a 6.9615413,6.9031559 0 0 0 -0.09323,0.12326 c -3.249988,4.20373 -5.768668,9.40565 -7.862026,15.62299 -0.0032,0.01 0.0032,0.0209 0,0.0308 -1.351987,3.94489 -2.35424,7.60179 -3.387197,11.30895 l -11.093847,0 0,-45.35906 z"
       style="font-size:350px;font-style:normal;font-variant:normal;font-weight:bold;font-stretch:normal;line-height:125%;letter-spacing:0px;word-spacing:0px;fill:#ffffff;fill-opacity:1;stroke:none;font-family:Cambria;-inkscape-font-specification:Cambria" />
  </g>
</svg>
